<svg id="Layer_1" enable-background="new 0 0 512 512" height="512" viewBox="0 0 512 512" width="512" xmlns="http://www.w3.org/2000/svg"><g><g><path clip-rule="evenodd" d="m188.409 183.734c-12.104 19.925-8.249 46.228 10.148 61.703 19.445 16.382 48.075 14.71 65.479-3.288 17.319 4.393 36.396-1.049 48.67-15.617 10.063-11.961 13.294-27.351 10.119-41.523 5.102-2.778 9.779-6.519 13.748-11.224 11.31-13.406 14.003-31.206 8.702-46.653l-80.644-39.964c3.487 11.876-3.401 24.375-15.25 27.89l-32.541 9.665c-14.882 4.393-29.395 7.086-43.653 6.207-6.179 18.196-1.02 39.114 14.541 52.237z" fill="#ffa96b" fill-rule="evenodd"/></g><g><path clip-rule="evenodd" d="m138.265 120.415c11.508 6.632 23.13 9.807 34.922 10.515 14.258.879 28.771-1.814 43.653-6.207l32.541-9.665c11.849-3.515 18.737-16.014 15.25-27.89l80.644 39.964 1.559.765c10.686 5.3 23.612 3.118 29.877-7.057 6.264-10.147 2.664-22.958-7.058-29.874l-96.688-68.846c-28.828-19.217-40.988-11.677-71.318-3.458-20.579 6.065-26.305 7.709-46.884 13.747-22.705 6.689-31.804 7.114-52.1 7.142v70.461h6.208c16.128.001 20.352 5.188 29.394 10.403z" fill="#ffdcd5" fill-rule="evenodd"/></g><g><path clip-rule="evenodd" d="m11.786 110.013c0 7.568 6.179 13.775 13.776 13.775h63.325c7.597 0 13.776-6.207 13.776-13.775v-70.462-6.859c0-7.596-6.208-13.803-13.776-13.803h-63.325c-7.568 0-13.776 6.207-13.776 13.803z" fill="#a0c8ff" fill-rule="evenodd"/></g><g><path clip-rule="evenodd" d="m33.499 348.862h174.384 96.206 174.412c12.926 0 23.499-10.572 23.499-23.497s-10.573-23.497-23.499-23.497h-445.002c-12.926.001-23.499 10.573-23.499 23.497 0 12.925 10.573 23.497 23.499 23.497z" fill="#ffa96b" fill-rule="evenodd"/></g><g><path clip-rule="evenodd" d="m233.195 397.698h45.609 13.663c6.406 0 11.622-6.377 11.622-14.172v-34.664h-96.206v34.664c0 7.794 5.244 14.172 11.622 14.172z" fill="#e2e7ef" fill-rule="evenodd"/></g><g><path clip-rule="evenodd" d="m233.195 397.698h45.609v55.411h-45.609z" fill="#c3d3dd" fill-rule="evenodd"/></g><g><path clip-rule="evenodd" d="m141.185 502.001h229.63v-24.46c0-13.435-10.998-24.432-24.462-24.432h-67.548-45.609-67.577c-13.436 0-24.434 10.997-24.434 24.432z" fill="#ffa96b" fill-rule="evenodd"/></g><g><path d="m25.562 133.787h63.324c9.531 0 17.765-5.639 21.554-13.753 8.882.223 12.243 2.373 17.607 5.817 1.533.985 3.271 2.1 5.223 3.226 9.322 5.374 18.638 8.627 27.755 10.375-2.087 16.895 3.34 33.822 15.072 46.424-4.262 10-5.656 21.085-3.927 31.949 2.189 13.759 9.274 26.283 19.944 35.258 10.824 9.119 24.136 13.615 37.406 13.614 13.451 0 26.86-4.622 37.58-13.729 20.01 3.11 40.011-4.276 53.258-20 10.212-12.138 14.919-27.498 13.375-43.024 3.868-2.78 7.378-6.03 10.484-9.712 9.374-11.111 14.099-25.337 13.604-39.584 11.073.168 21.525-5.013 27.399-14.556 8.884-14.388 4.684-32.992-9.766-43.271l-96.688-68.846c-.084-.06-.168-.118-.254-.175-29.037-19.356-44.9-14.753-68.91-7.784-3.347.971-6.807 1.975-10.571 2.995-.071.019-.142.039-.211.06-12.559 3.701-19.582 5.755-27.831 8.167-5.264 1.539-11.027 3.224-19.052 5.579-17.679 5.208-26.205 6.383-39.497 6.654-1.577-11.606-11.535-20.581-23.554-20.581h-63.324c-13.11 0-23.776 10.678-23.776 23.802v77.32c0 13.11 10.666 23.775 23.776 23.775zm303.366 33.551c-3.066 3.635-6.729 6.626-10.885 8.889-.002.001-.003.002-.005.003-13.896 7.577-30.68 5.887-42.764-4.305-4.221-3.561-10.53-3.025-14.092 1.195-3.561 4.221-3.026 10.529 1.195 14.09 10.77 9.086 23.985 13.744 37.341 13.744 4.72 0 9.458-.584 14.112-1.759-.71 7.601-3.696 14.86-8.774 20.895-9.483 11.257-24.258 15.995-38.561 12.367-3.474-.882-7.156.165-9.648 2.741-13.827 14.298-36.6 15.437-51.852 2.587-14.463-12.166-17.845-32.711-8.043-48.854 0 0 .001-.001.001-.001 1.01-1.66 2.172-3.279 3.413-4.758 3.399-3.998 7.425-7.188 11.969-9.483 4.93-2.49 6.908-8.504 4.418-13.433-2.49-4.93-8.504-6.907-13.435-4.418-5.82 2.939-11.057 6.831-15.654 11.603-5.651-7.911-8.054-17.664-6.665-27.356 14.082-.293 27.258-3.385 38.689-6.778l32.537-9.664c10.824-3.211 18.748-11.588 21.862-21.631l62.78 31.105c2.69 11.618-.195 24.043-7.939 33.221zm-216.265-117.879c15.415-.321 25.415-1.711 44.915-7.456 8.008-2.349 13.765-4.033 19.024-5.571 8.238-2.409 15.256-4.461 27.767-8.148 3.893-1.057 7.408-2.076 10.807-3.063 22.473-6.521 30.907-8.97 52.116 5.135l96.563 68.757c5.75 4.09 7.618 11.172 4.339 16.484-3.633 5.9-11.26 6.148-16.92 3.34l-78.687-38.987c-6.585-14.396-22.973-22.195-38.636-17.634l-46.487 13.491c-5.304 1.539-8.356 7.086-6.816 12.39 1.54 5.303 7.086 8.356 12.391 6.815l46.495-13.494c6.612-1.926 13.554 1.852 15.493 8.437.004.014.008.028.012.042 1.922 6.573-1.89 13.512-8.506 15.475l-32.539 9.665c-15.382 4.565-28.434 6.518-40.141 5.825-.159-.011-.319-.027-.477-.03-10.941-.717-20.713-3.76-30.115-9.18-1.538-.887-2.931-1.782-4.407-2.729-6.323-4.06-12.864-8.236-26.192-8.906v-50.658zm-90.877-16.767c0-2.062 1.729-3.804 3.776-3.804h63.324c2.047 0 3.776 1.742 3.776 3.804v77.32c0 2.047-1.729 3.776-3.776 3.776h-63.324c-2.047 0-3.776-1.729-3.776-3.776z"/><path d="m478.501 291.87h-177.615c-5.523 0-10 4.477-10 9.999s4.478 9.999 10 9.999h177.616c7.443 0 13.498 6.055 13.498 13.497 0 7.443-6.056 13.498-13.498 13.498h-445.003c-7.443 0-13.498-6.055-13.498-13.498 0-7.442 6.055-13.497 13.498-13.497h177.587c5.523 0 10-4.477 10-9.999s-4.477-9.999-10-9.999h-177.587c-18.471 0-33.499 15.026-33.499 33.495 0 18.47 15.028 33.496 33.499 33.496h164.383v24.665c0 13.328 9.699 24.171 21.622 24.171h3.691v35.413h-57.577c-18.987 0-34.434 15.446-34.434 34.431v24.46c0 5.522 4.477 9.999 10 9.999h229.63c5.523 0 10-4.477 10-9.999v-24.46c0-18.986-15.46-34.431-34.463-34.431h-57.548v-35.413h3.662c11.923 0 21.623-10.843 21.623-24.171v-24.665h164.412c18.471 0 33.499-15.026 33.499-33.496.001-18.469-15.027-33.495-33.498-33.495zm-132.148 171.238c7.975 0 14.462 6.474 14.462 14.433v14.461h-209.63v-14.461c0-7.959 6.475-14.433 14.434-14.433zm-103.157-19.999v-35.413h25.608v35.413zm50.893-59.583c0 2.439-1.179 3.934-1.694 4.173h-72.806c-.522-.248-1.706-1.747-1.706-4.173v-24.665h76.206z"/><path d="m245.985 301.869c0 5.522 4.477 9.999 10 9.999h.057c5.523 0 9.971-4.477 9.971-9.999s-4.505-9.999-10.028-9.999c-5.522 0-10 4.476-10 9.999z"/></g></g></svg>