<?xml version="1.0" encoding="iso-8859-1"?>
<!-- Generator: Adobe Illustrator 19.0.0, SVG Export Plug-In . SVG Version: 6.00 Build 0)  -->
<svg version="1.1" id="Capa_1" xmlns="http://www.w3.org/2000/svg" xmlns:xlink="http://www.w3.org/1999/xlink" x="0px" y="0px"
	 viewBox="0 0 442.275 442.275" style="enable-background:new 0 0 442.275 442.275;" xml:space="preserve">
<g>
	<polygon style="fill:#ED664C;" points="424.087,383.175 424.087,432.675 18.287,432.675 18.287,383.175 41.587,383.175 
		400.787,383.175 	"/>
	<path style="fill:#ED664C;" d="M404.687,157.075h-30.6h-51h-51h-51h-51h-50.9h-51h-30.4l183.4-147.1L404.687,157.075z
		 M244.487,92.975c0-12.9-10.4-23.3-23.3-23.3s-23.3,10.4-23.3,23.3s10.4,23.3,23.3,23.3S244.487,105.875,244.487,92.975z"/>
</g>
<g>
	<polygon style="fill:#FDC75B;" points="400.787,333.675 400.787,383.175 41.587,383.175 41.587,333.675 68.287,333.675 
		119.287,333.675 170.187,333.675 221.187,333.675 272.187,333.675 323.087,333.675 374.087,333.675 	"/>
	<path style="fill:#FDC75B;" d="M221.187,69.675c12.9,0,23.3,10.4,23.3,23.3s-10.4,23.3-23.3,23.3s-23.3-10.4-23.3-23.3
		C197.887,80.075,208.287,69.675,221.187,69.675z"/>
</g>
<path d="M221.187,126.275c18.4,0,33.3-14.9,33.3-33.3s-14.9-33.3-33.3-33.3s-33.3,14.9-33.3,33.3
	C187.887,111.375,202.787,126.275,221.187,126.275z M221.187,79.675c7.3,0,13.3,6,13.3,13.3c0,7.3-6,13.3-13.3,13.3
	s-13.3-6-13.3-13.3C207.887,85.675,213.887,79.675,221.187,79.675z"/>
<path d="M424.087,373.275h-12.9v-39.6c0-5.5-4.9-10.4-10.4-10.4h-16.6v-156h20.5c4.2,0,8-2.8,9.4-6.8s0.1-8.5-3.2-11.2l-183.4-147.1
	c-3.7-2.9-8.9-2.9-12.5,0l-183.5,147.1c-3.3,2.7-4.6,7.2-3.2,11.2s5.2,6.8,9.4,6.8h20.5v156h-16.6c-5.5,0-10.4,4.9-10.4,10.4v39.6
	h-12.9c-5.5,0-10.1,4.4-10.1,9.9v49.5c0,5.5,4.6,9.6,10.1,9.6h405.7c5.5,0,10.1-4.1,10.1-9.6v-49.5
	C434.187,377.675,429.587,373.275,424.087,373.275z M364.187,323.275h-31v-156h31V323.275z M180.187,167.275h31v156h-31V167.275z
	 M160.187,323.275h-31v-156h31V323.275z M231.187,167.275h31v156h-31V167.275z M282.187,167.275h31v156h-31V167.275z
	 M221.187,23.075l155,124.2h-12.1h-31h-20h-31h-20h-31h-20h-31h-20h-31h-20h-31h-11.9L221.187,23.075z M78.187,167.275h31v156h-31
	V167.275z M51.187,343.275h7.1h20h31h20h31h20h31h20h31h20h31h20h31h20h7.1v30h-340.2V343.275z M414.187,422.275h-386v-29h3.4h20
	h339.1h20h3.4v29H414.187z"/>
<g>
</g>
<g>
</g>
<g>
</g>
<g>
</g>
<g>
</g>
<g>
</g>
<g>
</g>
<g>
</g>
<g>
</g>
<g>
</g>
<g>
</g>
<g>
</g>
<g>
</g>
<g>
</g>
<g>
</g>
</svg>
