<svg id="Capa_1" enable-background="new 0 0 512 512" height="512" viewBox="0 0 512 512" width="512" xmlns="http://www.w3.org/2000/svg"><g><g><g><path d="m504.5 449.004h-497v-24.295c0-9.223 7.476-16.699 16.699-16.699h463.602c9.223 0 16.699 7.476 16.699 16.699z" fill="#6dc17d"/></g></g><g><g><path d="m176.557 62.996c-55.151 0-99.859 44.708-99.859 99.859v185.59h199.718v-185.59c0-55.151-44.709-99.859-99.859-99.859z" fill="#b9c3cd"/></g></g><g><g><path d="m176.557 62.996c-5.099 0-10.107.384-15 1.122 48.034 7.236 84.859 48.686 84.859 98.737v185.59h30v-185.59c0-55.151-44.709-99.859-99.859-99.859z" fill="#a2abb8"/></g></g><g><g><path d="m299.406 408.01h-245.698v-47.826c0-6.484 5.256-11.74 11.74-11.74h222.219c6.484 0 11.74 5.256 11.74 11.74v47.826z" fill="#dce6eb"/></g></g><g><g><path d="m287.667 348.445h-30c6.484 0 11.74 5.256 11.74 11.74v47.826h30v-47.826c-.001-6.484-5.257-11.74-11.74-11.74z" fill="#c8d2dc"/></g></g><g><g><path d="m111.346 313.796v-150.941c0-35.957 29.254-65.211 65.211-65.211s65.21 29.254 65.21 65.211v150.942h-130.421z" fill="#7e8b96"/></g></g><g><g><path d="m176.557 97.644c-5.163 0-10.18.621-15 1.761 28.747 6.796 50.21 32.655 50.21 63.45v150.942h30v-150.942c0-35.958-29.253-65.211-65.21-65.211z" fill="#5f6c75"/></g></g><g><g><path d="m458.292 204.891h-42.528v-43.023h-37.229v43.023h-42.528v37.229h42.528v118.679h37.229v-118.679h42.528z" fill="#b9c3cd"/></g></g><g><g><path d="m451.037 408.01h-107.776v-34.471c0-6.484 5.256-11.74 11.74-11.74h84.296c6.484 0 11.74 5.256 11.74 11.74z" fill="#a2abb8"/></g></g><g><g><path d="m439.297 361.799h-30c6.484 0 11.74 5.256 11.74 11.74v34.471h30v-34.471c0-6.484-5.256-11.74-11.74-11.74z" fill="#909ba6"/></g></g><g><path d="m487.801 400.51h-29.264v-26.971c0-10.609-8.631-19.24-19.239-19.24h-16.034v-103.679h35.028c4.143 0 7.5-3.358 7.5-7.5v-37.229c0-4.142-3.357-7.5-7.5-7.5h-35.028v-35.523c0-4.142-3.357-7.5-7.5-7.5h-37.229c-4.143 0-7.5 3.358-7.5 7.5v35.523h-35.028c-4.143 0-7.5 3.358-7.5 7.5v37.229c0 4.142 3.357 7.5 7.5 7.5h35.028v53.178c0 4.142 3.357 7.5 7.5 7.5s7.5-3.358 7.5-7.5v-60.678c0-4.142-3.357-7.5-7.5-7.5h-35.028v-22.229h35.028c4.143 0 7.5-3.358 7.5-7.5v-35.523h22.229v35.523c0 4.142 3.357 7.5 7.5 7.5h35.028v22.229h-35.028c-4.143 0-7.5 3.358-7.5 7.5v111.179h-22.229v-20.501c0-4.142-3.357-7.5-7.5-7.5s-7.5 3.358-7.5 7.5v20.501h-16.034c-10.608 0-19.239 8.631-19.239 19.24v26.971h-28.855v-40.326c0-10.609-8.631-19.24-19.24-19.24h-3.75v-178.09c0-59.198-48.161-107.359-107.359-107.359s-107.359 48.161-107.359 107.359v90.791c0 4.142 3.357 7.5 7.5 7.5 4.142 0 7.5-3.358 7.5-7.5v-90.791c0-50.927 41.433-92.359 92.359-92.359 50.927 0 92.359 41.432 92.359 92.359v178.09h-184.72v-57.3c0-4.142-3.358-7.5-7.5-7.5-4.143 0-7.5 3.358-7.5 7.5v57.3h-3.749c-10.609 0-19.24 8.631-19.24 19.24v40.326h-22.009c-13.343 0-24.199 10.856-24.199 24.199v24.295c0 4.142 3.357 7.5 7.5 7.5h497c4.143 0 7.5-3.358 7.5-7.5v-24.295c0-13.343-10.855-24.199-24.199-24.199zm-137.039-26.971c0-2.338 1.901-4.24 4.239-4.24h84.297c2.338 0 4.239 1.902 4.239 4.24v26.971h-92.775zm-289.554-13.354c0-2.338 1.902-4.24 4.24-4.24h222.218c2.338 0 4.24 1.902 4.24 4.24v40.326h-230.698zm435.792 81.319h-482v-16.795c0-5.072 4.127-9.199 9.199-9.199h319.063 107.775 36.764c5.072 0 9.199 4.126 9.199 9.199z"/><path d="m241.768 321.296c4.143 0 7.5-3.358 7.5-7.5v-150.941c0-40.093-32.617-72.71-72.71-72.71-40.094 0-72.712 32.618-72.712 72.71v150.942c0 4.142 3.357 7.5 7.5 7.5h130.422zm-122.922-158.441c0-31.822 25.89-57.71 57.712-57.71 31.821 0 57.71 25.889 57.71 57.71v143.442h-115.422z"/><path d="m202.785 168.014h-52.457c-4.143 0-7.5 3.358-7.5 7.5s3.357 7.5 7.5 7.5h52.457c4.143 0 7.5-3.358 7.5-7.5s-3.357-7.5-7.5-7.5z"/><path d="m202.785 207.056h-52.457c-4.143 0-7.5 3.358-7.5 7.5s3.357 7.5 7.5 7.5h52.457c4.143 0 7.5-3.358 7.5-7.5s-3.357-7.5-7.5-7.5z"/></g></g></svg>