<?xml version="1.0" encoding="iso-8859-1"?>
<!-- Generator: Adobe Illustrator 19.0.0, SVG Export Plug-In . SVG Version: 6.00 Build 0)  -->
<svg version="1.1" id="Capa_1" xmlns="http://www.w3.org/2000/svg" xmlns:xlink="http://www.w3.org/1999/xlink" x="0px" y="0px"
	 viewBox="0 0 512 512" style="enable-background:new 0 0 512 512;" xml:space="preserve">
<g>
	<path style="fill:#FFC477;" d="M456.523,363.062L352.032,308.26v-0.017l-54.809-66.854l-8.13-9.91v-52.999l5.422,8.586
		c2.485,5.186,9.5,7.697,15.588,5.58l0,0c6.088-2.117,9.035-8.092,6.55-13.278C264.923,72.796,268.148,78.317,266.337,76.275
		c-5.478-6.23-17.053-5.13-20.598,2.268l-49.923,100.823c-2.485,5.186,0.463,11.161,6.55,13.278
		c6.088,2.117,13.102-0.394,15.588-5.58l5.164-10.427c-0.125,0.608-0.197,1.224-0.197,1.842v52.987l-62.785,76.578L55.227,363.062
		c-8.3,4.355-13.497,12.946-13.497,22.328v109.088c0,5.527,4.486,10.013,10.013,10.013H160.23h191.291h0.25h108.237
		c5.527,0,10.013-4.486,10.013-10.013V385.39C470.021,376.008,464.824,367.418,456.523,363.062z"/>
	<path style="fill:#FFC477;" d="M289.092,178.479v57.312h-66.173v-57.312c0-1.372,0.31-2.733,0.921-4.005L256,107.69l12.876,26.734
		l19.284,40.051C288.772,175.746,289.092,177.107,289.092,178.479z"/>
</g>
<path style="fill:#FFDAAA;" d="M289.092,178.479v57.312h-40.421v-57.312c0-1.372,0.31-2.733,0.921-4.005l19.284-40.051
	l19.284,40.051C288.772,175.746,289.092,177.107,289.092,178.479z"/>
<polygon style="fill:#FF9811;" points="352.032,308.243 351.771,504.491 160.23,504.491 159.969,308.243 222.919,231.466 
	289.082,231.466 297.222,241.389 "/>
<path style="fill:#FFB655;" d="M352.032,308.243l-0.26,196.248H189.176l-0.24-179.827c0-4.195,1.452-8.27,4.115-11.515
	l52.268-63.762c4.15-5.063,10.352-7.998,16.898-7.998h35.005L352.032,308.243z"/>
<path style="fill:#EE8700;" d="M301.678,370.141v134.35h-91.355v-134.35c0-10.703,5.136-20.456,13.417-27.515
	c6.598-5.617,15.179-9.542,24.751-10.904c2.443-0.35,4.956-0.531,7.509-0.531s5.066,0.18,7.509,0.531
	C285.097,334.796,301.678,350.897,301.678,370.141z"/>
<path style="fill:#FFA733;" d="M316.651,179.366L267.866,78.543c-0.398-0.83-0.922-1.583-1.53-2.268
	c-1.253-1.425-2.946-2.593-5.01-3.311c-1.031-0.358-2.09-0.574-3.148-0.677c-0.039-0.004-0.078-0.01-0.117-0.013
	c-0.265-0.023-0.531-0.035-0.796-0.043c-0.154-0.005-0.307-0.013-0.463-0.014c-0.154,0-0.308,0.008-0.463,0.014
	c-0.265,0.008-0.53,0.019-0.796,0.043c-0.039,0.004-0.078,0.01-0.117,0.013c-1.058,0.102-2.117,0.318-3.148,0.677
	c-2.065,0.718-3.757,1.886-5.01,3.31c-0.608,0.685-1.132,1.439-1.531,2.269l-49.922,100.823c-2.485,5.186,0.463,11.161,6.55,13.278
	c6.088,2.117,13.102-0.394,15.588-5.58l38.721-78.202l37.84,78.202c2.485,5.186,9.5,7.697,15.588,5.58l0,0
	C316.188,190.527,319.136,184.552,316.651,179.366z"/>
<g>
	<path style="fill:#FFC477;" d="M160.23,307.993v196.498H51.743c-5.527,0-10.013-4.486-10.013-10.013V385.39
		c0-9.382,5.197-17.973,13.497-22.328L160.23,307.993z"/>
	<path style="fill:#FFC477;" d="M470.021,385.39v109.088c0,5.527-4.486,10.013-10.013,10.013H351.521V307.993l105.002,55.069
		C464.824,367.418,470.021,376.008,470.021,385.39z"/>
</g>
<g>
	<path style="fill:#FFDAAA;" d="M160.23,346.822v157.669H67.202v-93.638c0-9.372,5.197-17.973,13.497-22.328L160.23,346.822z"/>
	<path style="fill:#FFDAAA;" d="M470.021,402.982v91.495c0,5.53-4.483,10.013-10.013,10.013h-78.639V366.974
		c0-4.765,5.061-7.826,9.282-5.613L470.021,402.982z"/>
</g>
<g>
	<path style="fill:#B3D8F4;" d="M410.773,458.695L410.773,458.695c16.384,0,29.788-13.404,29.788-29.788v-7.009
		c0-16.383-13.404-29.788-29.788-29.788l0,0c-16.383,0-29.788,13.404-29.788,29.788v7.009
		C380.985,445.291,394.389,458.695,410.773,458.695z"/>
	<path style="fill:#B3D8F4;" d="M100.979,458.695L100.979,458.695c-16.384,0-29.788-13.404-29.788-29.788v-7.009
		c0-16.383,13.404-29.788,29.788-29.788l0,0c16.383,0,29.788,13.404,29.788,29.788v7.009
		C130.765,445.291,117.362,458.695,100.979,458.695z"/>
</g>
<path d="M101.103,384.601c-20.566,0-37.297,16.731-37.297,37.297v7.009c0,20.566,16.731,37.297,37.297,37.297
	s37.297-16.731,37.297-37.297v-7.009C138.4,401.333,121.669,384.601,101.103,384.601z M93.594,449.88
	c-7.381-2.651-12.965-9.093-14.401-16.967h14.401V449.88z M93.594,417.893H79.192c1.436-7.874,7.02-14.316,14.401-16.967
	C93.594,400.926,93.594,417.893,93.594,417.893z M108.613,449.88v-16.967h14.401C121.578,440.786,115.994,447.228,108.613,449.88z
	 M108.613,417.893v-16.967c7.381,2.651,12.965,9.093,14.401,16.967L108.613,417.893L108.613,417.893z"/>
<path d="M470.146,447.162c4.147,0,7.509-3.362,7.509-7.509v-54.266c0-12.203-6.714-23.306-17.522-28.975l-103.12-54.084
	l-60.291-73.545V198.9c16.287,7.683,34.116-7.558,26.814-22.803c-51.438-105.791-48.488-101.46-51.435-104.78
	c-2.019-2.297-4.636-4.086-7.589-5.219V31.13h10.735c4.147,0,7.509-3.362,7.509-7.509s-3.362-7.509-7.509-7.509h-10.735V7.509
	c0-4.147-3.362-7.509-7.509-7.509c-4.147,0-7.509,3.362-7.509,7.509v8.602h-10.735c-4.147,0-7.509,3.362-7.509,7.509
	s3.362,7.509,7.509,7.509h10.735v34.91c-4.933,1.847-8.556,5.402-10.359,9.17l-12.139,24.516c-1.84,3.717-0.319,8.221,3.397,10.062
	c3.719,1.842,8.221,0.319,10.062-3.397c13.403-27.033,12.122-24.643,12.578-25.157c1.609-1.829,4.715-1.498,4.122-1.499
	c2.207,0.074,3.633,1.154,4.077,2.078c51.008,105.515,48.917,100.846,48.917,101.374c0,1.11-1.721,2.698-4.409,2.698
	c-1.903,0-3.765-0.888-4.341-2.093c-0.003-0.006-0.005-0.009-0.014-0.029c-0.056-0.115-0.041-0.084-0.047-0.097
	c-0.002-0.004-0.003-0.007-0.005-0.01c0.001,0.001,0.001,0.003,0.002,0.004c-0.601-1.238-5.624-11.592-38.443-79.232
	c-2.723-5.654-10.805-5.662-13.532,0c-25.893,53.968-13.96,28.735-38.054,79.389c-0.565,1.178-2.426,2.067-4.329,2.067
	c-3.193,0-4.828-2.089-4.306-3.188l24.455-49.388c1.84-3.717,0.319-8.221-3.397-10.062c-3.718-1.841-8.221-0.318-10.062,3.397
	l-24.497,49.475c-7.167,14.951,10.023,30.183,26.361,22.996v29.662l-60.105,73.316L51.867,356.411
	c-10.808,5.668-17.522,16.771-17.522,28.975v119.105c0,4.147,3.362,7.509,7.509,7.509h428.29c4.147,0,7.509-3.362,7.509-7.509v-34.8
	c0-4.147-3.362-7.509-7.509-7.509c-4.147,0-7.509,3.362-7.509,7.509v27.29H359.418l0.228-176.314l93.511,49.045
	c5.846,3.067,9.478,9.072,9.478,15.674v54.266C462.636,443.8,465.998,447.162,470.146,447.162z M49.365,496.981V385.385
	c0-6.602,3.632-12.608,9.478-15.674l93.761-49.176l0.228,176.446H49.365z M230.549,178.803l26.102-52.716
	c26.4,54.954,25.052,51.694,25.052,52.392v45.475h-51.154L230.549,178.803L230.549,178.803z M248.616,496.981
	c-10.662,0-20.013,0-30.659,0V370.142c0-15.96,14.32-28.12,30.659-30.83V496.981z M344.14,496.981h-34.828V391.766
	c0-4.147-3.362-7.509-7.509-7.509c-4.147,0-7.509,3.362-7.509,7.509v105.215h-30.659V339.328
	c14.641,2.46,26.642,11.952,29.841,24.368c1.034,4.017,5.133,6.431,9.146,5.399c4.016-1.034,6.433-5.129,5.399-9.146
	c-5.415-21.018-27.239-36.272-51.893-36.272c-30.261,0-53.187,21.675-53.187,46.464V496.98h-35.077V310.618l55.185-67.316h66.158
	l54.935,67.011V496.981z"/>
<path d="M373.6,421.898v7.009c0,20.566,16.731,37.297,37.297,37.297s37.297-16.731,37.297-37.297v-7.009
	c0-20.566-16.731-37.297-37.297-37.297S373.6,401.333,373.6,421.898z M403.387,449.88c-7.381-2.651-12.965-9.093-14.401-16.967
	h14.401V449.88z M403.387,417.893h-14.401c1.436-7.874,7.02-14.316,14.401-16.967V417.893z M418.406,400.926
	c7.381,2.651,12.965,9.093,14.401,16.967h-14.401V400.926z M418.406,432.912h14.401c-1.436,7.874-7.02,14.316-14.401,16.967V432.912
	z"/>
<g>
</g>
<g>
</g>
<g>
</g>
<g>
</g>
<g>
</g>
<g>
</g>
<g>
</g>
<g>
</g>
<g>
</g>
<g>
</g>
<g>
</g>
<g>
</g>
<g>
</g>
<g>
</g>
<g>
</g>
</svg>
