<?xml version="1.0" encoding="iso-8859-1"?>
<!-- Generator: Adobe Illustrator 21.0.0, SVG Export Plug-In . SVG Version: 6.00 Build 0)  -->
<svg version="1.1" id="Capa_1" xmlns="http://www.w3.org/2000/svg" xmlns:xlink="http://www.w3.org/1999/xlink" x="0px" y="0px"
	 viewBox="0 0 511.999 511.999" style="enable-background:new 0 0 511.999 511.999;" xml:space="preserve">
<path style="fill:#D0D1D2;" d="M197.096,503.939L197.096,503.939c-15.003,0-27.013-12.445-26.48-27.438l12.572-353.746h27.816
	l12.572,353.746C224.109,491.494,212.098,503.939,197.096,503.939z"/>
<path style="fill:#6CB6DE;" d="M170.615,476.501c-0.533,14.993,11.477,27.438,26.48,27.438l0,0c15.003,0,27.013-12.445,26.48-27.438
	l-8.357-235.154h-36.246L170.615,476.501z"/>
<path style="fill:#61A3C7;" d="M190.638,476.501l8.357-235.154h-20.023l-8.357,235.154c-0.533,14.993,11.477,27.438,26.48,27.438
	l0,0c3.548,0,6.924-0.703,10.011-1.964C197.14,497.903,190.23,487.949,190.638,476.501z"/>
<path style="fill:#F2F3F3;" d="M197.096,183.821L197.096,183.821c-30.027,0-54.369-27.758-54.369-61.999l11.509-110.75
	c0.211-2.03,1.922-3.572,3.962-3.572h77.795c2.041,0,3.752,1.542,3.962,3.572l11.509,110.75
	C251.465,156.063,227.122,183.821,197.096,183.821z"/>
<path style="fill:#E8E9EA;" d="M162.749,121.822L174.629,7.5h-16.431c-2.041,0-3.752,1.542-3.962,3.572l-11.509,110.75
	c0,34.241,24.342,61.999,54.369,61.999l0,0c3.422,0,6.765-0.377,10.011-1.067C181.864,177.393,162.749,152.161,162.749,121.822z"/>
<path style="fill:#F27F6F;" d="M346.014,504.5L346.014,504.5c-12.844,0-23.257-10.412-23.257-23.257V181.61h46.513v299.633
	C369.271,494.088,358.858,504.5,346.014,504.5z"/>
<path style="fill:#DF7566;" d="M343.565,481.243V181.61h-20.808v299.633c0,12.844,10.412,23.257,23.257,23.257l0,0
	c3.741,0,7.273-0.888,10.404-2.458C348.799,498.223,343.565,490.347,343.565,481.243z"/>
<path style="fill:#F2F3F3;" d="M369.271,310.985h-74.918c-6.449,0-11.676-5.228-11.676-11.676V154.062
	c0-58.538,30.475-112.854,80.435-143.362l0,0c2.698-1.648,6.16,0.294,6.16,3.456v296.829H369.271z"/>
<path style="fill:#E8E9EA;" d="M302.699,299.309V154.062c0-52.907,24.898-102.361,66.572-133.909v-5.996
	c0-3.162-3.461-5.104-6.16-3.456l0,0c-49.96,30.507-80.435,84.824-80.435,143.362V299.31c0,6.449,5.228,11.676,11.676,11.676h20.023
	C307.927,310.985,302.699,305.758,302.699,299.309z"/>
<path d="M247.416,10.297C246.806,4.427,241.895,0,235.993,0h-77.795c-5.902,0-10.813,4.427-11.422,10.297l-11.509,110.75
	c-0.026,0.258-0.04,0.517-0.04,0.775c0,28.911,15.801,53.746,38.208,64.205l-3.332,93.75c-0.147,4.14,3.089,7.615,7.229,7.762
	c0.091,0.003,0.181,0.005,0.271,0.005c4.019,0,7.347-3.185,7.49-7.233l1.118-31.463h21.77l8.1,227.92
	c0.185,5.199-1.703,10.123-5.315,13.866c-3.613,3.744-8.467,5.805-13.669,5.805c-5.202,0-10.057-2.062-13.669-5.805
	c-3.613-3.744-5.5-8.668-5.316-13.867l5.987-168.458c0.147-4.14-3.089-7.615-7.229-7.762c-4.156-0.159-7.615,3.089-7.762,7.229
	l-5.987,168.458c-0.331,9.304,3.048,18.117,9.513,24.816s15.153,10.388,24.463,10.388s17.998-3.689,24.463-10.389
	c6.465-6.699,9.843-15.512,9.512-24.816l-10.314-290.207c22.407-10.459,38.208-35.294,38.208-64.205c0-0.259-0.014-0.518-0.04-0.775
	L247.416,10.297z M207.447,233.847h-20.704l1.537-43.244c2.881,0.464,5.822,0.717,8.815,0.717c2.993,0,5.934-0.253,8.815-0.717
	L207.447,233.847z M197.096,176.321c-25.735,0-46.692-24.244-46.868-54.121L161.368,15h10.105v101.547c0,4.142,3.358,7.5,7.5,7.5
	s7.5-3.358,7.5-7.5V15h21.246v101.547c0,4.142,3.358,7.5,7.5,7.5s7.5-3.358,7.5-7.5V15h10.105l11.14,107.2
	C243.788,152.077,222.831,176.321,197.096,176.321z"/>
<path d="M376.771,14.156c0-4.172-2.26-8.031-5.898-10.072c-3.638-2.042-8.11-1.959-11.67,0.215
	c-25.607,15.637-46.903,37.733-61.584,63.9c-14.681,26.167-22.441,55.857-22.441,85.862v22.654c0,4.142,3.358,7.5,7.5,7.5
	s7.5-3.358,7.5-7.5v-22.654c0-53.456,27.282-104.082,71.595-133.611v283.035h-67.418c-2.303,0-4.176-1.874-4.176-4.176v-94.594
	c0-4.142-3.358-7.5-7.5-7.5s-7.5,3.358-7.5,7.5v94.594c0,10.574,8.603,19.176,19.176,19.176h20.905v162.758
	c0,16.959,13.797,30.756,30.756,30.756s30.757-13.797,30.757-30.756V310.986l0,0l0,0V14.156H376.771z M346.014,497
	c-8.688,0-15.756-7.068-15.756-15.756V318.485h31.513v162.758C361.771,489.932,354.703,497,346.014,497z"/>
<g>
</g>
<g>
</g>
<g>
</g>
<g>
</g>
<g>
</g>
<g>
</g>
<g>
</g>
<g>
</g>
<g>
</g>
<g>
</g>
<g>
</g>
<g>
</g>
<g>
</g>
<g>
</g>
<g>
</g>
</svg>
