<svg id="Capa_1" enable-background="new 0 0 497 497" height="512" viewBox="0 0 497 497" width="512" xmlns="http://www.w3.org/2000/svg"><g><path d="m49.699 447.299c0 27.449 22.251 49.7 49.7 49.7h298.201c27.449 0 49.7-22.252 49.7-49.7v-397.598c0-27.449-22.252-49.7-49.7-49.7h-298.201c-27.449 0-49.7 22.252-49.7 49.7z" fill="#d0e2ed"/><g fill="#394d5c"><g><path d="m222.867 0v49.699c0 4.143-3.358 7.5-7.5 7.5s-7.5-3.357-7.5-7.5v-49.699z"/><path d="m289.134 0v49.699c0 4.143-3.357 7.5-7.5 7.5s-7.5-3.357-7.5-7.5v-49.699z"/></g><g><path d="m207.867 497v-49.698c0-4.143 3.358-7.5 7.5-7.5s7.5 3.357 7.5 7.5v49.698z"/><path d="m274.134 497v-49.698c0-4.143 3.357-7.5 7.5-7.5s7.5 3.357 7.5 7.5v49.698z"/></g><g><path d="m49.699 207.866h57.984c4.142 0 7.5 3.357 7.5 7.5s-3.358 7.5-7.5 7.5h-57.984z"/><path d="m49.699 274.134h57.984c4.142 0 7.5 3.357 7.5 7.5s-3.358 7.5-7.5 7.5h-57.984z"/></g><g><path d="m447.301 222.866h-57.983c-4.143 0-7.5-3.357-7.5-7.5s3.357-7.5 7.5-7.5h57.983z"/><path d="m447.301 289.134h-57.983c-4.143 0-7.5-3.357-7.5-7.5s3.357-7.5 7.5-7.5h57.983z"/></g></g><path d="m397.601 0h-23c27.449 0 49.7 22.252 49.7 49.7v397.599c0 27.449-22.251 49.7-49.7 49.7h23c27.449 0 49.7-22.252 49.7-49.7v-397.599c0-27.448-22.252-49.7-49.7-49.7z" fill="#aabfcf"/><path d="m365.317 447.301h-233.634c-13.255 0-24-10.745-24-24v-349.602c0-13.255 10.745-24 24-24h233.634c13.255 0 24 10.745 24 24v349.602c0 13.255-10.745 24-24 24z" fill="#118df0"/><g><path d="m341.9 414.167h-186.8c-3.314 0-6-2.686-6-6v-319.334c0-3.314 2.686-6 6-6h186.8c3.314 0 6 2.686 6 6v319.335c0 3.313-2.686 5.999-6 5.999z" fill="#83e85a"/><g><path d="m248.5 181.449c-17.838 0-32.35-14.512-32.35-32.35 0-4.143 3.358-7.5 7.5-7.5s7.5 3.357 7.5 7.5c0 9.566 7.783 17.35 17.35 17.35 9.566 0 17.35-7.783 17.35-17.35 0-4.143 3.357-7.5 7.5-7.5s7.5 3.357 7.5 7.5c0 17.839-14.512 32.35-32.35 32.35z" fill="#fafafa"/></g><path d="m290.7 82.833v58.767h-84.4v-58.767h-15v66.267c0 4.143 3.358 7.5 7.5 7.5h99.4c4.143 0 7.5-3.357 7.5-7.5v-66.267z" fill="#fafafa"/><path d="m257.566 82.833v25.633h-18.133v-25.633h-15v33.133c0 4.143 3.358 7.5 7.5 7.5h33.133c4.143 0 7.5-3.357 7.5-7.5v-33.133z" fill="#fafafa"/><g><path d="m273.35 355.4c-4.143 0-7.5-3.357-7.5-7.5 0-9.567-7.783-17.351-17.35-17.351s-17.35 7.783-17.35 17.351c0 4.143-3.358 7.5-7.5 7.5s-7.5-3.357-7.5-7.5c0-17.838 14.512-32.351 32.35-32.351s32.35 14.513 32.35 32.351c0 4.143-3.358 7.5-7.5 7.5z" fill="#fafafa"/></g><path d="m206.3 414.167v-58.767h84.4v58.767h15v-66.267c0-4.143-3.357-7.5-7.5-7.5h-99.4c-4.142 0-7.5 3.357-7.5 7.5v66.267z" fill="#fafafa"/><path d="m239.433 414.167v-25.633h18.133v25.633h15v-33.133c0-4.143-3.357-7.5-7.5-7.5h-33.133c-4.142 0-7.5 3.357-7.5 7.5v33.133z" fill="#fafafa"/><path d="m341.9 82.832h-23c3.314 0 6 2.687 6 6v319.335c0 3.314-2.686 6-6 6h23c3.314 0 6-2.686 6-6v-319.335c0-3.313-2.686-6-6-6z" fill="#4ae048"/><g><path d="m248.5 289.134c-22.405 0-40.633-18.228-40.633-40.634s18.228-40.634 40.633-40.634 40.634 18.229 40.634 40.634-18.229 40.634-40.634 40.634zm0-66.268c-14.134 0-25.633 11.499-25.633 25.634s11.499 25.634 25.633 25.634c14.135 0 25.634-11.499 25.634-25.634s-11.499-25.634-25.634-25.634z" fill="#fafafa"/></g><path d="m149.1 241h198.801v15h-198.801z" fill="#fafafa"/></g><path d="m365.317 49.699h-23c13.255 0 24 10.745 24 24v349.602c0 13.255-10.745 24-24 24h23c13.255 0 24-10.745 24-24v-349.602c0-13.255-10.745-24-24-24z" fill="#1179f0"/></g></svg>