<?xml version="1.0" encoding="iso-8859-1"?>
<!-- Generator: Adobe Illustrator 19.0.0, SVG Export Plug-In . SVG Version: 6.00 Build 0)  -->
<svg xmlns="http://www.w3.org/2000/svg" xmlns:xlink="http://www.w3.org/1999/xlink" version="1.1" id="Layer_1" x="0px" y="0px" viewBox="0 0 512 512" style="enable-background:new 0 0 512 512;" xml:space="preserve" width="512" height="512">
<g id="location">
	<g id="fill_49_">
		<path style="fill:#FF737D;" d="M444.823,196.324c0,67.124-78.231,195.759-133.983,278.909c-26.165,39.023-83.515,39.023-109.68,0    c-55.753-83.15-133.984-211.785-133.984-278.909C67.176,92.039,151.716,7.5,256,7.5S444.823,92.039,444.823,196.324z"/>
		<path style="fill:#F46262;" d="M207.004,201.581C203.997,58.459,285.06,27.845,327.759,21.628C305.634,12.53,281.406,7.5,256,7.5    C151.715,7.5,67.176,92.039,67.176,196.323c0,67.125,78.231,195.759,133.983,278.909c26.165,39.023,83.515,39.023,109.68,0    c10.838-16.164,22.526-34.052,34.324-52.868C280.338,360.6,209.445,317.778,207.004,201.581z"/>
		<circle style="fill:#D7F3FF;" cx="256" cy="196.324" r="126.954"/>
		<path style="fill:#BDEBFF;" d="M241.696,70.177c-63.379,7.108-112.65,60.869-112.65,126.147    c0,66.576,51.248,121.175,116.446,126.518c-22.249-31.093-37.383-68.658-38.488-121.261    C205.675,138.347,220.762,97.086,241.696,70.177z"/>
		<path style="fill:#66D3D0;" d="M303.126,126.237c-8.284,0-15,6.716-15,15v40.086h-64.252v-40.086c0-8.284-6.716-15-15-15    c-8.284,0-15,6.716-15,15v110.172c0,8.284,6.716,15,15,15c8.284,0,15-6.716,15-15v-40.086h64.252v40.086c0,8.284,6.716,15,15,15    c8.284,0,15-6.716,15-15V141.237C318.126,132.953,311.41,126.237,303.126,126.237z"/>
	</g>
	<g id="stroke_49_">
		<path d="M428.216,101.99c-1.993-3.631-6.552-4.96-10.184-2.966c-3.632,1.992-4.959,6.552-2.967,10.183    c14.562,26.529,22.258,56.653,22.258,87.116c0,66.825-83.148,200.813-132.713,274.732C293.556,487.544,275.838,497,256,497    s-37.556-9.456-48.61-25.944c-49.564-73.92-132.713-207.907-132.713-274.732C74.677,96.341,156.018,15,256,15    c55.988,0,107.972,25.273,142.621,69.34c2.56,3.256,7.275,3.821,10.531,1.26c3.256-2.561,3.82-7.275,1.26-10.531    C372.9,27.361,316.619,0,256,0C147.747,0,59.677,88.07,59.677,196.323c0,37.119,23.465,116.363,135.254,283.086    C208.614,499.816,231.443,512,256,512s47.386-12.184,61.069-32.591c111.789-166.723,135.254-245.967,135.254-283.086    C452.323,163.344,443.987,130.725,428.216,101.99z"/>
		<path d="M136.622,200.635c-0.148-4.139-3.652-7.388-7.761-7.229c-4.14,0.146-7.376,3.621-7.229,7.761    c1.236,34.89,15.762,67.496,40.902,91.812c25.202,24.376,58.396,37.8,93.466,37.8c74.139,0,134.454-60.315,134.454-134.454    c0-74.138-60.315-134.453-134.454-134.453c-30.675,0-60.679,10.602-84.485,29.854c-23.456,18.967-40.022,45.524-46.648,74.781    c-0.915,4.039,1.618,8.056,5.658,8.971c4.037,0.92,8.057-1.618,8.971-5.658c5.885-25.981,20.605-49.574,41.451-66.431    C202.093,86.287,228.747,76.87,256,76.87c65.867,0,119.454,53.586,119.454,119.453c0,65.867-53.587,119.454-119.454,119.454    c-31.158,0-60.648-11.926-83.037-33.582C150.626,260.592,137.721,231.627,136.622,200.635z"/>
		<path d="M208.874,118.737c-12.406,0-22.5,10.094-22.5,22.5v110.172c0,12.406,10.094,22.5,22.5,22.5    c12.406,0,22.5-10.094,22.5-22.5v-32.586h49.252v32.586c0,12.406,10.094,22.5,22.5,22.5c12.406,0,22.5-10.094,22.5-22.5V141.237    c0-12.406-10.094-22.5-22.5-22.5c-12.406,0-22.5,10.094-22.5,22.5v32.586h-49.252v-32.586    C231.374,128.831,221.28,118.737,208.874,118.737z M288.126,188.823c4.143,0,7.5-3.357,7.5-7.5v-40.086c0-4.136,3.364-7.5,7.5-7.5    c4.136,0,7.5,3.364,7.5,7.5v110.172c0,4.136-3.364,7.5-7.5,7.5c-4.136,0-7.5-3.364-7.5-7.5v-40.086c0-4.143-3.357-7.5-7.5-7.5    h-64.252c-4.143,0-7.5,3.357-7.5,7.5v40.086c0,4.136-3.364,7.5-7.5,7.5c-4.136,0-7.5-3.364-7.5-7.5V141.237    c0-4.136,3.364-7.5,7.5-7.5c4.136,0,7.5,3.364,7.5,7.5v40.086c0,4.143,3.357,7.5,7.5,7.5H288.126z"/>
	</g>
</g>















</svg>
