<svg id="icon" height="512" viewBox="0 0 128 128" width="512" xmlns="http://www.w3.org/2000/svg"><path d="m79.566 50.466h-11.161l.004.127-.011-.127h-8.796-11.168l-3.663 31.915h12.194 1.602 10.869 1.599 12.194z" fill="#e1b378"/><path d="m83.227 82.378h-38.455l.501-4.343h30.839l-3.164-27.565h6.624z" fill="#bd8d5a"/><path d="m83.229 83.38h-38.458a1 1 0 0 1 -.993-1.114l3.662-31.914a1 1 0 0 1 .993-.886h31.133a1 1 0 0 1 .993.886l3.663 31.914a1 1 0 0 1 -.993 1.114zm-37.338-2h36.217l-3.433-29.914h-9.775a1 1 0 0 1 -.977 0h-18.6z" fill="#2f3a5a"/><path d="m85.936 88.731h-13.583-2.146-12.405-2.155-13.583l-7.743 38.265h17.907 3.386 16.772 3.386 17.907z" fill="#ef5361"/><path d="m93.682 127h-59.365l.568-2.826h49.281l-7.17-35.444h8.938z" fill="#da2a47"/><path d="m93.679 128h-59.358a1 1 0 0 1 -.98-1.2l7.742-38.265a1 1 0 0 1 .98-.8h43.874a1 1 0 0 1 .98.8l7.742 38.265a1 1 0 0 1 -.98 1.2zm-58.135-2h56.912l-7.338-36.269h-42.236z" fill="#2f3a5a"/><path d="m37.083 82.381h53.834v9.992h-53.834z" fill="#d9e2e9"/><path d="m90.921 82.378v9.996h-53.843v-3.972h48.965v-6.024z" fill="#c1cdd3"/><g fill="#2f3a5a"><path d="m90.917 93.373h-53.834a1 1 0 0 1 -1-1v-9.993a1 1 0 0 1 1-1h53.834a1 1 0 0 1 1 1v9.992a1 1 0 0 1 -1 1.001zm-52.834-2h51.834v-7.993h-51.834z"/><path d="m90.917 84.939a1 1 0 0 1 -1-1v-7.426h-51.834v5.867a1 1 0 0 1 -2 0v-6.867a1 1 0 0 1 1-1h53.834a1 1 0 0 1 1 1v8.427a1 1 0 0 1 -1 .999z"/><path d="m83.163 83.38a1 1 0 0 1 -1-1v-6.867a1 1 0 0 1 2 0v6.867a1 1 0 0 1 -1 1z"/><path d="m70.775 83.38a1 1 0 0 1 -1-1v-6.867a1 1 0 0 1 2 0v6.867a1 1 0 0 1 -1 1z"/><path d="m56.885 83.38a1 1 0 0 1 -1-1v-6.867a1 1 0 0 1 2 0v6.867a1 1 0 0 1 -1 1z"/><path d="m44.771 83.38a1 1 0 0 1 -1-1v-6.867a1 1 0 0 1 2 0v6.867a1 1 0 0 1 -1 1z"/></g><path d="m48.434 50.466 15.566-19.071 15.566 19.071z" fill="#d9e2e9"/><path d="m79.566 51.466h-31.132a1 1 0 0 1 -.774-1.632l15.566-19.071a1.033 1.033 0 0 1 1.549 0l15.566 19.071a1 1 0 0 1 -.774 1.632zm-29.025-2h26.918l-13.459-16.489z" fill="#2f3a5a"/><path d="m98.87 1-56.813 68.18" fill="#d9e2e9"/><path d="m42.057 70.18a1 1 0 0 1 -.768-1.64l56.811-68.18a1 1 0 0 1 1.537 1.28l-56.811 68.18a1 1 0 0 1 -.769.36z" fill="#2f3a5a"/><path d="m84.357.7h13.684v40.387h-13.684z" fill="#d9e2e9" transform="matrix(.768 .64 -.64 .768 34.511 -53.539)"/><path d="m83.528 41.788a1 1 0 0 1 -.641-.232l-10.512-8.756a1 1 0 0 1 -.128-1.408l25.853-31.032a1 1 0 0 1 1.411-.128l10.513 8.76a1 1 0 0 1 .128 1.408l-25.852 31.028a1 1 0 0 1 -.678.356c-.033.002-.063.004-.094.004zm-9.1-9.888 8.977 7.48 24.57-29.492-8.975-7.48z" fill="#2f3a5a"/><path d="m104.126 5.38-25.854 31.028" fill="#d9e2e9"/><path d="m78.271 37.408a1 1 0 0 1 -.768-1.64l25.854-31.028a1 1 0 0 1 1.537 1.28l-25.854 31.028a1 1 0 0 1 -.769.36z" fill="#2f3a5a"/><path d="m94.22 6.58 10.513 8.76" fill="#d9e2e9"/><path d="m104.731 16.34a1 1 0 0 1 -.64-.232l-10.512-8.76a1 1 0 1 1 1.281-1.536l10.513 8.76a1 1 0 0 1 -.642 1.768z" fill="#2f3a5a"/><path d="m88.589 13.338 10.513 8.76" fill="#d9e2e9"/><path d="m99.1 23.1a1 1 0 0 1 -.64-.232l-10.513-8.76a1 1 0 1 1 1.281-1.536l10.513 8.76a1 1 0 0 1 -.641 1.768z" fill="#2f3a5a"/><path d="m82.958 20.096 10.512 8.76" fill="#d9e2e9"/><path d="m93.47 29.856a1 1 0 0 1 -.64-.232l-10.513-8.76a1 1 0 1 1 1.283-1.536l10.513 8.76a1 1 0 0 1 -.642 1.768z" fill="#2f3a5a"/><path d="m77.326 26.854 10.513 8.76" fill="#d9e2e9"/><path d="m87.838 36.614a1 1 0 0 1 -.64-.232l-10.513-8.76a1 1 0 1 1 1.281-1.536l10.513 8.76a1 1 0 0 1 -.642 1.768z" fill="#2f3a5a"/><path d="m29.959 44.606h13.684v40.387h-13.684z" fill="#d9e2e9" transform="matrix(.768 .64 -.64 .768 50.011 -8.541)"/><path d="m29.129 85.694a1 1 0 0 1 -.64-.232l-10.512-8.762a1 1 0 0 1 -.128-1.408l25.851-31.026a1 1 0 0 1 1.409-.128l10.516 8.762a1 1 0 0 1 .128 1.408l-25.853 31.026a1 1 0 0 1 -.771.36zm-9.1-9.888 8.971 7.48 24.576-29.492-8.976-7.48z" fill="#2f3a5a"/><path d="m49.728 49.286-25.854 31.028" fill="#d9e2e9"/><path d="m23.873 81.314a1 1 0 0 1 -.768-1.64l25.855-31.028a1 1 0 0 1 1.537 1.28l-25.854 31.028a1 1 0 0 1 -.77.36z" fill="#2f3a5a"/><path d="m39.822 50.487 10.513 8.76" fill="#d9e2e9"/><path d="m50.334 60.247a1 1 0 0 1 -.64-.232l-10.513-8.76a1 1 0 1 1 1.281-1.536l10.513 8.76a1 1 0 0 1 -.642 1.768z" fill="#2f3a5a"/><path d="m34.191 57.245 10.513 8.76" fill="#d9e2e9"/><path d="m44.7 67a1 1 0 0 1 -.64-.232l-10.51-8.755a1 1 0 1 1 1.281-1.536l10.513 8.76a1 1 0 0 1 -.644 1.763z" fill="#2f3a5a"/><path d="m28.56 64.002 10.512 8.761" fill="#d9e2e9"/><path d="m39.071 73.763a1 1 0 0 1 -.64-.232l-10.513-8.76a1 1 0 1 1 1.282-1.537l10.513 8.76a1 1 0 0 1 -.642 1.768z" fill="#2f3a5a"/><path d="m22.928 70.76 10.513 8.76" fill="#d9e2e9"/><path d="m33.44 80.521a1 1 0 0 1 -.64-.232l-10.513-8.76a1 1 0 1 1 1.281-1.536l10.513 8.76a1 1 0 0 1 -.642 1.768z" fill="#2f3a5a"/><path d="m29.13 1 56.813 68.18" fill="#d9e2e9"/><path d="m85.943 70.18a1 1 0 0 1 -.77-.36l-56.812-68.18a1 1 0 0 1 1.539-1.28l56.811 68.18a1 1 0 0 1 -.768 1.64z" fill="#2f3a5a"/><path d="m29.959.7h13.684v40.387h-13.684z" fill="#d9e2e9" transform="matrix(-.768 .64 -.64 -.768 78.448 13.387)"/><path d="m44.472 41.788c-.03 0-.061 0-.091 0a1 1 0 0 1 -.678-.356l-25.854-31.032a1 1 0 0 1 .128-1.408l10.512-8.76a1.014 1.014 0 0 1 .732-.232 1 1 0 0 1 .679.36l25.853 31.027a1 1 0 0 1 -.128 1.408l-10.513 8.76a1 1 0 0 1 -.64.233zm-24.447-31.9 24.575 29.491 8.977-7.48-24.577-29.491z" fill="#2f3a5a"/><path d="m23.874 5.38 25.854 31.028" fill="#d9e2e9"/><path d="m49.729 37.408a1 1 0 0 1 -.77-.36l-25.854-31.028a1 1 0 0 1 1.537-1.28l25.858 31.028a1 1 0 0 1 -.768 1.64z" fill="#2f3a5a"/><path d="m33.78 6.58-10.513 8.76" fill="#d9e2e9"/><path d="m23.269 16.34a1 1 0 0 1 -.642-1.768l10.513-8.76a1 1 0 1 1 1.281 1.536l-10.513 8.76a1 1 0 0 1 -.639.232z" fill="#2f3a5a"/><path d="m39.411 13.338-10.513 8.76" fill="#d9e2e9"/><path d="m28.9 23.1a1 1 0 0 1 -.642-1.768l10.513-8.76a1 1 0 1 1 1.281 1.536l-10.513 8.76a1 1 0 0 1 -.639.232z" fill="#2f3a5a"/><path d="m45.042 20.096-10.512 8.76" fill="#d9e2e9"/><path d="m34.53 29.856a1 1 0 0 1 -.642-1.768l10.512-8.76a1 1 0 1 1 1.281 1.536l-10.511 8.76a1 1 0 0 1 -.64.232z" fill="#2f3a5a"/><path d="m50.674 26.854-10.513 8.76" fill="#d9e2e9"/><path d="m40.162 36.614a1 1 0 0 1 -.642-1.768l10.513-8.76a1 1 0 1 1 1.281 1.536l-10.514 8.76a1 1 0 0 1 -.638.232z" fill="#2f3a5a"/><path d="m84.357 44.606h13.684v40.387h-13.684z" fill="#d9e2e9" transform="matrix(-.768 .64 -.64 -.768 202.744 56.201)"/><path d="m98.871 85.694a1 1 0 0 1 -.77-.36l-25.854-31.027a1 1 0 0 1 .128-1.408l10.513-8.76a1 1 0 0 1 1.409.128l25.854 31.028a1 1 0 0 1 -.128 1.408l-10.513 8.76a1 1 0 0 1 -.639.231zm-24.447-31.9 24.576 29.492 8.977-7.479-24.577-29.493z" fill="#2f3a5a"/><path d="m78.272 49.286 25.854 31.028" fill="#d9e2e9"/><path d="m104.127 81.314a1 1 0 0 1 -.77-.36l-25.857-31.027a1 1 0 0 1 1.537-1.28l25.854 31.027a1 1 0 0 1 -.768 1.64z" fill="#2f3a5a"/><path d="m88.178 50.487-10.513 8.76" fill="#d9e2e9"/><path d="m77.666 60.247a1 1 0 0 1 -.642-1.768l10.513-8.76a1 1 0 1 1 1.281 1.536l-10.513 8.76a1 1 0 0 1 -.639.232z" fill="#2f3a5a"/><path d="m93.809 57.245-10.513 8.76" fill="#d9e2e9"/><path d="m83.3 67a1 1 0 0 1 -.642-1.768l10.513-8.76a1 1 0 1 1 1.281 1.536l-10.513 8.76a1 1 0 0 1 -.639.232z" fill="#2f3a5a"/><path d="m99.44 64.002-10.512 8.761" fill="#d9e2e9"/><path d="m88.929 73.763a1 1 0 0 1 -.642-1.768l10.513-8.761a1 1 0 1 1 1.281 1.536l-10.513 8.76a1 1 0 0 1 -.639.233z" fill="#2f3a5a"/><path d="m105.072 70.76-10.513 8.76" fill="#d9e2e9"/><path d="m94.56 80.521a1 1 0 0 1 -.642-1.768l10.513-8.76a1 1 0 1 1 1.281 1.536l-10.512 8.76a1 1 0 0 1 -.64.232z" fill="#2f3a5a"/><circle cx="64" cy="42.847" fill="#e1b378" r="3.696"/><path d="m64 47.542a4.7 4.7 0 1 1 4.7-4.7 4.7 4.7 0 0 1 -4.7 4.7zm0-7.391a2.7 2.7 0 1 0 2.7 2.7 2.7 2.7 0 0 0 -2.7-2.7z" fill="#2f3a5a"/><path d="m64 113.555a5.625 5.625 0 0 0 -5.625 5.625v7.82h11.25v-7.815a5.625 5.625 0 0 0 -5.625-5.63z" fill="#d9e2e9"/><path d="m69.625 128h-11.25a1 1 0 0 1 -1-1v-7.815a6.625 6.625 0 0 1 13.25 0v7.815a1 1 0 0 1 -1 1zm-10.25-2h9.25v-6.815a4.625 4.625 0 0 0 -9.25 0z" fill="#2f3a5a"/></svg>