<svg id="Layer_1" enable-background="new 0 0 512.001 512.001" height="512" viewBox="0 0 512.001 512.001" width="512" xmlns="http://www.w3.org/2000/svg"><g><path d="m10.008 482.001 145-199 71.488 98.112 109.512-199.112 166 300z" fill="#b8ecbc"/><path d="m387.518 275.091-22.51 10.91-29-19-25 7-15.37-18.6 40.37-73.4z" fill="#fff"/><path d="m302.008 120.001c0 49.706-90 150-90 150s-90-100.294-90-150 40.294-90 90-90 90 40.294 90 90z" fill="#ff7d97"/><circle cx="212.008" cy="120.001" fill="#fff" r="30"/><g><path d="m204.566 276.679c1.896 2.114 4.603 3.321 7.442 3.321s5.546-1.207 7.442-3.321c.934-1.04 23.12-25.836 45.676-57.2 31.108-43.257 46.882-76.727 46.882-99.479 0-55.141-44.859-100-100-100s-100 44.859-100 100c0 22.752 15.773 56.222 46.882 99.479 22.556 31.364 44.742 56.16 45.676 57.2zm7.442-236.678c44.112 0 80 35.888 80 80 0 34.217-52.261 102.379-80 134.809-27.739-32.43-80-100.592-80-134.809 0-44.113 35.888-80 80-80z"/><path d="m252.008 120.001c0-22.056-17.944-40-40-40s-40 17.944-40 40 17.944 40 40 40 40-17.945 40-40zm-60 0c0-11.028 8.972-20 20-20s20 8.972 20 20-8.972 20-20 20-20-8.972-20-20z"/><path d="m510.758 477.161-32.79-59.261c-1.761-3.18-5.12-5.159-8.761-5.159-1.68 0-3.35.439-4.83 1.26-2.34 1.29-4.029 3.41-4.77 5.979-.74 2.57-.43 5.271.86 7.61l24.579 44.41h-455.379l125.341-172.02 99.758 136.909c1.957 2.687 5.003 4.112 8.09 4.112 2.043 0 4.104-.624 5.881-1.919 4.464-3.252 5.445-9.508 2.193-13.971l-32.608-44.751 58.985-107.242 5.993 7.252c2.52 3.048 6.597 4.323 10.405 3.26l20.624-5.775 25.199 16.51c1.656 1.085 3.564 1.636 5.481 1.636 1.486 0 2.979-.331 4.36-1.001l13.987-6.779 33.542 60.62c1.76 3.18 5.11 5.16 8.76 5.16 1.68 0 3.351-.431 4.83-1.25 4.82-2.67 6.58-8.771 3.91-13.59l-89.64-162c-1.761-3.181-5.11-5.16-8.75-5.16h-.011c-3.64 0-7 1.99-8.75 5.18l-101.93 185.33-62.23-85.4c-1.899-2.609-4.85-4.109-8.079-4.109-3.181 0-6.211 1.54-8.08 4.109l-145 199c-2.23 3.061-2.551 7.051-.83 10.42 1.71 3.37 5.13 5.471 8.91 5.471h492c3.529 0 6.829-1.891 8.609-4.92 1.791-3.041 1.851-6.841.141-9.921zm-174.721-274.307 37.622 68.147h-.001l-7.91 3.682-24.259-15.97c-1.646-1.078-3.553-1.674-5.48-1.674-.902 0-1.81.103-2.696.351l-18.737 5.238-6.9-8.278z"/><circle cx="447.431" cy="383.371" r="10"/></g></g></svg>