<svg id="Capa_1" enable-background="new 0 0 512.001 512.001" height="512" viewBox="0 0 512.001 512.001" width="512" xmlns="http://www.w3.org/2000/svg"><g><g><g><path d="m357.455 260.948-7.181 141.227h-188.544l-7.181-141.227h6.321c8.081 0 14.642-6.551 14.642-14.642v-34.174h160.98v34.174c0 8.091 6.551 14.642 14.642 14.642z" fill="#cebec3"/></g></g><g><g><path d="m160.871 260.948h-81.534c-8.084 0-14.637-6.553-14.637-14.637v-34.176h110.808v34.176c0 8.084-6.553 14.637-14.637 14.637z" fill="#f4ecea"/></g></g><g><g><path d="m432.664 260.948h-81.534c-8.084 0-14.637-6.553-14.637-14.637v-34.176h110.808v34.176c0 8.084-6.553 14.637-14.637 14.637z" fill="#f4ecea"/></g></g><g><g><path d="m256.032 14.954v-.037l-.031.018-.031-.018v.037l-245.969 145.809c54.7 0 54.7 51.372 54.7 51.372h382.601s0-51.372 54.7-51.372z" fill="#f4ecea"/></g></g><g><g><path d="m416.593 156.635v15.492h-321.181v-15.492l160.56-95.182.16.1.03-.02z" fill="#cebec3"/></g></g><g><g><circle cx="257.422" cy="142.094" fill="#9da5be" r="30.033"/></g></g><g><g><path d="m154.552 260.948h-68.895l-7.177 141.225h83.248z" fill="#f4ecea"/></g></g><g><g><path d="m426.345 260.948h-68.895l-7.177 141.225h83.248z" fill="#f4ecea"/></g></g><g><g><path d="m470.766 449.592v-31.492c0-8.796-7.131-15.927-15.927-15.927h-397.677c-8.796 0-15.927 7.131-15.927 15.927v31.493h429.531z" fill="#f4ecea"/></g></g><g><g><path d="m35.945 449.591c-8.796 0-15.927 7.131-15.927 15.927v31.493h470.795v-31.493c0-8.796-7.131-15.927-15.927-15.927z" fill="#f4ecea"/></g></g><g><g><path d="m295.949 402.173h-77.784v-61.871c0-21.479 17.413-38.892 38.892-38.892 21.479 0 38.892 17.412 38.892 38.892z" fill="#9da5be"/></g></g><g><path d="m507.1 152.161-245.506-145.536c-3.253-2.182-7.941-2.176-11.196.006l-245.496 145.53c-3.875 2.297-5.736 6.901-4.545 11.246s5.14 7.356 9.644 7.356c24.312 0 44.293 15.754 44.7 41.372v34.176c0 12.158 8.855 22.281 20.453 24.274l-6.178 121.588h-11.814c-14.296 0-25.927 11.63-25.927 25.926v21.928c-12.054 2.223-21.216 12.803-21.216 25.49v31.492c0 5.523 4.477 10 10 10h470.795c5.523 0 10-4.477 10-10v-31.492c0-12.273-8.576-22.575-20.048-25.246v-22.171c0-14.296-11.63-25.926-25.926-25.926h-11.814l-6.178-121.588c11.598-1.993 20.453-12.116 20.453-24.274v-34.128c.228-25.645 20.472-41.42 44.7-41.42 4.504 0 8.453-3.012 9.644-7.356 1.191-4.346-.67-8.95-4.545-11.247zm-432.4 69.974h90.808v24.176c0 2.557-2.08 4.637-4.637 4.637h-81.534c-2.557 0-4.637-2.08-4.637-4.637zm251.793 0v24.176c0 12.158 8.855 22.281 20.454 24.274l-6.179 121.588h-34.82v-51.871c0-26.959-21.933-48.892-48.892-48.892s-48.892 21.933-48.892 48.892v51.871h-36.932l-6.179-121.588c11.598-1.993 20.454-12.116 20.454-24.274v-24.176zm-40.545 170.038h-57.784v-51.871c0-15.931 12.961-28.892 28.892-28.892s28.892 12.961 28.892 28.892zm-190.787-121.225h49.885l6.161 121.226h-62.206zm365.605 147.152v21.491h-160.36c-5.523 0-10 4.477-10 10v.001c0 5.523 4.477 10 10 10l174.482-.001c3.268 0 5.927 2.659 5.927 5.927v21.492h-450.796v-21.492c0-3.268 2.659-5.927 5.927-5.927l176.485.001c5.523 0 10-4.477 10-10v-.001s0 0 0-.001c0-5.523-4.477-10-10-10h-161.196v-21.49c0-3.268 2.659-5.926 5.927-5.926h397.678c3.268-.001 5.926 2.658 5.926 5.926zm-99.972-25.927 6.161-121.226h49.885l6.16 121.226zm76.507-145.862c0 2.557-2.08 4.637-4.637 4.637h-81.534c-2.557 0-4.637-2.08-4.637-4.637v-24.176h90.808zm8.011-64.562c-3.925 7.371-5.927 14.746-6.948 20.385h-364.726c-3.698-20.415-15.982-38.439-35.587-46.375l217.95-129.2 217.95 129.2c-14.965 6.059-23.651 16.621-28.639 25.99z"/><path d="m250.873 52.851-160.561 95.182c-3.038 1.801-4.9 5.07-4.9 8.602v15.492c0 5.523 4.477 10 10 10h321.181c5.523 0 10-4.477 10-10v-15.492c0-3.532-1.863-6.801-4.901-8.602l-160.43-95.102c-3.174-1.882-7.188-1.979-10.389-.08zm-13.484 89.243c0-11.046 8.987-20.033 20.033-20.033s20.033 8.987 20.033 20.033-8.987 20.033-20.033 20.033c-11.046-.001-20.033-8.987-20.033-20.033zm168.857 20.032h-114.186c3.424-5.897 5.395-12.737 5.395-20.033 0-22.074-17.959-40.033-40.033-40.033s-40.033 17.958-40.033 40.033c0 7.296 1.971 14.136 5.395 20.033h-117.026l150.242-89.065z"/><path d="m266.66 445.763c-2.096-5.031-8.023-7.491-13.06-5.41-5.039 2.081-7.487 8.03-5.41 13.06 2.081 5.038 8.025 7.495 13.06 5.41 5.047-2.09 7.476-8.02 5.41-13.06z"/></g></g></svg>