<svg id="Capa_1" enable-background="new 0 0 512 512" height="512" viewBox="0 0 512 512" width="512" xmlns="http://www.w3.org/2000/svg"><g><g><g><path d="m271.905 427h30v85h-30z" fill="#009959"/></g></g><g><g><path d="m333.717 427h30v85h-30z" fill="#009959"/></g></g><g><g><path d="m395.57 361h30v88.352h-30z" fill="#009959"/></g></g><g><g><path d="m457.381 296h30v90.726h-30z" fill="#009959"/></g></g><g><path d="m210.095 427h30v85h-30z" fill="#6fbf6b"/></g><g><path d="m148.284 427h30v85h-30z" fill="#6fbf6b"/></g><g><path d="m86.473 361h30v88.352h-30z" fill="#6fbf6b"/></g><g><path d="m24.662 296h30v90.726h-30z" fill="#6fbf6b"/></g><g><path d="m168.262 0h-31.619l-56.474 129.75 3.238 25.536-16.139 4.103-18.767 43.119 3.621 24.654-16.522 4.985-24.955 57.334 137.962 155.557h107.393l20-222.519-20-178.48z" fill="#ff6c6c"/><path d="m501.355 289.481-24.955-57.335-15.528-2.699 2.628-26.939-18.768-43.119-15.691-3.074 2.791-26.564-56.475-129.751h-31.619l-87.738 44.039v400.999h107.393z" fill="#c83c50"/></g><g><path d="m168.262 0 87.738 88.08 20-54.58-20-33.5z" fill="#c83c50"/><path d="m256 0v88.08l87.738-88.08z" fill="#962a3a"/></g><path d="m67.268 159.389 113.691 115.216h75.041l10-17.852-10-12.148h-62.498l-113.333-114.855z" fill="#ffe89c"/><path d="m35.6 232.147 133.385 135.175h87.015l10-15.288-10-14.712h-74.471l-133.028-134.814z" fill="#6fbf6b"/><path d="m431.832 129.751-113.334 114.854h-62.498v30h75.041l113.691-115.216z" fill="#fad17f"/><path d="m463.5 202.508-133.028 134.814h-74.472v30h87.015l133.385-135.176z" fill="#009959"/></g></svg>