<svg id="Layer_1" enable-background="new 0 0 510 510" height="512" viewBox="0 0 510 510" width="512" xmlns="http://www.w3.org/2000/svg"><g><path d="m76 90v240l90 10 90-10 10-120-10-120c-10 0-170 0-180 0z" fill="#e7f1f8"/><path d="m436 90c-10 0-170 0-180 0v240l90 10 90-10c0-6.8 0-233.2 0-240z" fill="#bcd7fb"/><path d="m46 135c0 8.3 3.4 15.8 8.8 21.2 11.7 11.7 30.7 11.7 42.4 0 5.4-5.4 8.8-12.9 8.8-21.2l10-67.5-10-67.5c-7.3 0-52.7 0-60 0v75l10 15-10 15z" fill="#f8e69a"/><path d="m106 135c0 8.3 3.4 15.8 8.8 21.2 11.7 11.7 30.7 11.7 42.4 0 5.4-5.4 8.8-12.9 8.8-21.2l10-67.5-10-67.5c-7.3 0-52.7 0-60 0z" fill="#f96"/><path d="m166 135c0 8.3 3.4 15.8 8.8 21.2 11.7 11.7 30.7 11.7 42.4 0 5.4-5.4 8.8-12.9 8.8-21.2l10-67.5-10-67.5c-7.3 0-52.7 0-60 0z" fill="#f8e69a"/><path d="m226 0v135c0 16.6 13.4 30 30 30l10-82.5-10-82.5c-10.5 0-19.5 0-30 0z" fill="#f96"/><path d="m286 135 10-67.5-10-67.5c-10.5 0-19.5 0-30 0v165c16.6 0 30-13.4 30-30z" fill="#f66"/><path d="m286 135c0 8.3 3.4 15.8 8.8 21.2 11.7 11.7 30.7 11.7 42.4 0 5.4-5.4 8.8-12.9 8.8-21.2l10-67.5-10-67.5c-7.3 0-52.7 0-60 0z" fill="#f2cf7f"/><path d="m346 135c0 8.3 3.4 15.8 8.8 21.2 11.7 11.7 30.7 11.7 42.4 0 5.4-5.4 8.8-12.9 8.8-21.2l10-67.5-10-67.5c-7.3 0-52.7 0-60 0z" fill="#f66"/><path d="m406 135c0 8.3 3.4 15.8 8.8 21.2 11.7 11.7 30.7 11.7 42.4 0 5.4-5.4 8.8-12.9 8.8-21.2v-30l-10-15 10-15c0-8.1 0-63.4 0-75-7.3 0-52.7 0-60 0z" fill="#f2cf7f"/><circle cx="331" cy="285" fill="#6492fc" r="45"/><path d="m136 330 60 10 60-10c0-10.9 0-79 0-90-14.5 0-105.4 0-120 0z" fill="#f66"/><path d="m46 75v30h210l10-15-10-15c-11.7 0-198.3 0-210 0z" fill="#f2cf7f"/><path d="m256 75v30h210c0-10.5 0-19.5 0-30-11.7 0-198.3 0-210 0z" fill="#e6b864"/><path d="m1 330v120h255l10-60-10-60c-7.2 0-247.8 0-255 0z" fill="#f2cf7f"/><path d="m511 450c0-14.5 0-105.4 0-120-7.2 0-247.8 0-255 0v120z" fill="#e6b864"/><path d="m136 390c-16.6 0-31.6 6.7-42.4 17.6-23.4 23.4-23.5 61.4 0 84.9 10.9 10.9 25.9 17.6 42.4 17.6 33.1 0 60-26.9 60-60 0-33.2-26.9-60.1-60-60.1z" fill="#b57a6a"/><path d="m333.6 407.6c-23.4 23.4-23.5 61.4 0 84.9 23.4 23.4 61.4 23.5 84.9 0 23.4-23.4 23.5-61.4 0-84.9-23.5-23.4-61.5-23.5-84.9 0z" fill="#8d5b4a"/></g></svg>