<svg id="Color" enable-background="new 0 0 24 24" height="512" viewBox="0 0 24 24" width="512" xmlns="http://www.w3.org/2000/svg"><path d="m12 .139c-4.963 0-9 4.037-9 9 0 7.051 8.156 14.329 8.504 14.636.142.125.319.188.496.188s.354-.062.496-.188c.348-.307 8.504-7.586 8.504-14.636 0-4.963-4.037-9-9-9z" fill="#ef5350"/><path d="m12 14.3c-.553 0-1-.448-1-1v-7.5c0-.552.447-1 1-1s1 .448 1 1v7.5c0 .552-.447 1-1 1z" fill="#e3f2fd"/><path d="m15.25 9.3h-6.5c-.553 0-1-.448-1-1s.447-1 1-1h6.5c.553 0 1 .448 1 1s-.447 1-1 1z" fill="#e3f2fd"/><path d="m12 .139c-4.963 0-9 4.037-9 9 0 7.051 8.156 14.329 8.504 14.636.142.125.319.188.496.188v-9.663c-.553 0-1-.448-1-1v-4h-2.25c-.553 0-1-.448-1-1s.447-1 1-1h2.25v-1.5c0-.552.447-1 1-1z" fill="#d04846"/><g fill="#c6d3dc"><path d="m12 9.3h-1v4c0 .552.447 1 1 1zm0-4.5c-.553 0-1 .448-1 1v1.5h1z"/><path d="m12 7.3h-1-2.25c-.553 0-1 .448-1 1s.447 1 1 1h2.25 1z"/></g></svg>